<svg xmlns="http://www.w3.org/2000/svg" width="16" height="16" fill="none" class="mr-1"><g clip-path="url(#gas-pump_svg__a)"><path fill="currentColor" d="m15.414 3.805-2.276-2.276a.666.666 0 1 0-.943.942l1.024 1.024A1.988 1.988 0 0 0 12 5.333c.001.534.209 1.037.587 1.414.39.39.902.585 1.414.585.227 0 .451-.045.667-.12V14a.667.667 0 0 1-1.334 0v-3.333c0-1.103-.897-2-2-2h-.666V5.333A5.334 5.334 0 0 0 0 5.333V16h10.667v-6h.666c.368 0 .667.3.667.667V14c0 1.103.897 2 2 2s2-.897 2-2V5.22c0-.535-.209-1.038-.586-1.415M8.667 6H2v-.667A3.337 3.337 0 0 1 5.333 2a3.337 3.337 0 0 1 3.334 3.333zm5.804-.195a.667.667 0 1 1-.942-.944.667.667 0 0 1 .942.944"></path></g><defs><clipPath id="gas-pump_svg__a"><path fill="#fff" d="M0 0h16v16H0z"></path></clipPath></defs></svg>